<!-- width="810"  -->
<!-- height="719"  -->
<svg xmlns="http://www.w3.org/2000/svg" viewBox="0 0 810 719" stroke-linecap="round" stroke-linejoin="round">
  <style>
    path {
      fill: #000;
      stroke: #fff;
      stroke-width: 1;

    }

    #Berkeley {
      fill: #f00;
    }

    @media (prefers-color-scheme: dark) {
      path {
        fill: #fff;
        stroke: #000;
      }
    }
  </style>
  <g>
    <path
      d="M 212.94 266.81 214.07 271.29 220.1 271.44 220.47 275.36 229.45 276.72 230.53 279.66 233.8 282.47 229.18 284.1 225.29 291.45 223.51 296.06 224.05 299.38 208.64 308.18 203.42 309.26 182.3 326.66 177.69 331.33 151.31 316.39 152.06 314.09 152.01 305.44 150.29 299.43 153.67 295.59 155.62 291.45 160.99 289.22 160.32 283.19 163.31 279.81 166.89 279.15 174.55 279.6 180.64 281.47 183.02 266.83 185.53 263.97 191.91 259.91 196.84 254.45 199.62 252.63 204.01 253.53 207.46 257.18 209.05 263.94 212.94 266.81 Z"
      id="Wood" />
    <path
      d="M 53.81 551.77 64.51 540.25 70.94 535.55 73.12 531.13 71.14 527.01 67.49 525.94 65.72 523.7 64.65 519.33 61.33 516.63 63.11 513.19 58.49 510.28 60.94 505.3 60.16 497.78 62.06 496.82 62.43 492.99 63.33 489.49 65.82 487.54 66.03 484.99 71.39 481.42 74.28 473.85 78.36 471.44 83.74 470.37 87.59 468.64 90.59 465.23 95.87 463.49 98.78 464.03 99.22 471.73 98.01 481.4 103.18 485.34 107.19 486.05 119.98 474.71 124.71 477.08 131.08 477.54 133.73 475.71 135.72 476.96 137.51 481.77 137.85 490.98 136.58 495.35 132.67 499.04 131.38 499.74 129.46 506.19 126.21 505.63 123.72 507.66 123.06 512.69 116.19 510.9 112.56 517.38 113.78 519.36 110.68 523.24 109.31 531.84 115.38 534.87 115.48 536.67 97.09 538.35 72.95 545.91 53.81 551.77 Z"
      id="Lincoln" />
    <path
      d="M 224.05 299.38 223.51 296.06 225.29 291.45 229.18 284.1 233.8 282.47 236.87 274.33 244.65 274.83 247.22 273.8 253.38 273.1 259.55 269.95 262.53 271.61 265.36 270.55 267.61 266.1 271.32 266.07 278.5 268.54 280.78 266.45 282.74 258.89 288.85 261.61 291.46 264.85 291.06 275.31 290.25 278.08 286.15 282.43 297.67 306.91 301.87 316.47 302.19 318.53 293.03 323.72 284.69 329.8 282.12 329.52 277.02 331.4 271.67 336.28 265.97 336.53 259.29 336.33 254.9 333.88 250.62 328.9 246.55 329.8 245.27 331.82 242.7 329.68 238.02 328.78 231.13 330.63 229.67 316.54 227.32 315.54 226.86 312.74 219.68 308.18 220.95 303.04 224.05 299.38 Z"
      id="Ritchie" />
    <path
      d="M 265.97 336.53 271.67 336.28 277.02 331.4 282.12 329.52 284.69 329.8 293.03 323.72 302.19 318.53 301.87 316.47 315.46 319.5 315.34 322.01 317.07 337.55 334.72 359.33 332.43 359.63 329.11 362.22 324.32 361.57 319.18 364.32 294.8 381.92 272.83 396.94 270.91 390.81 267.34 387.9 263.11 385.86 262.19 381.68 268.8 375.32 268.86 371.49 270.38 370.41 269.78 359.18 268.9 354.5 270.71 352.57 270.66 346.66 269.17 343.87 266.21 341.79 265.97 336.53 Z"
      id="Gilmer" />
    <path
      d="M 290.25 278.08 299.93 268.11 315.53 257.52 318.56 250.6 322.43 251.15 327.58 249.94 329.24 247.89 334.05 246.43 340.06 246.47 345.88 250.97 346.71 254.87 345.3 256.22 346.56 260.44 345.65 266.94 341.37 273.63 339.06 275.57 335.93 280.42 340.18 281.28 338.58 285.6 342.46 288.55 341.93 293.99 347.62 295.77 346.33 299.29 342.57 302.65 336.94 305.02 330.24 311.03 327.09 310.26 323.09 314.26 323.1 316.22 319.69 320.64 315.46 319.5 301.87 316.47 297.67 306.91 286.15 282.43 290.25 278.08 Z"
      id="Doddridge" />
    <path
      d="M 24.1 454.21 41 448.86 43.43 449.97 51.46 448.86 54.22 447.23 57.73 437.61 58.13 432.06 59.39 428.94 60.37 420.6 63.22 417.65 67.84 416.8 72.18 418.33 98.07 443.31 98.78 464.03 95.87 463.49 90.59 465.23 87.59 468.64 83.74 470.37 78.36 471.44 74.28 473.85 71.39 481.42 66.03 484.99 65.82 487.54 63.33 489.49 62.43 492.99 58.31 491.94 55.01 487.18 56.21 479.14 59.26 475.57 57.68 472.52 52.73 473.21 52.08 475.68 48.61 475.81 24.1 454.21 Z"
      id="Cabell" />
    <path
      d="M 492.83 410 497.69 410.29 497.55 405.17 503.51 399.05 504.38 395.9 507.59 392.99 511.75 385.94 512.11 381.77 508.98 379.03 509.63 375.71 507.06 373.4 511.33 368.07 510.25 364.14 511.48 362.53 516.2 364.1 522.08 361.43 520.57 355.11 522.53 354.55 527 356.53 534.71 356.15 537.62 349.38 542.11 353.45 559.27 367.69 572.54 379.08 585.06 389.75 582.6 392.64 579.37 401.99 580.74 405.25 579.38 410.84 574.95 410.71 573.2 412.17 569.3 420.86 568 426.67 561.16 438.81 560.41 445.34 555.64 450.13 549.22 459.58 543.92 462.13 517.18 452.79 509.89 436.94 507.39 433.43 489.19 425.02 492.76 421.64 494.03 418.58 491.59 415.77 494.05 411.44 492.83 410 Z"
      id="Pendleton" />
    <path
      d="M 113.39 642.72 116.58 639.73 123.19 637.63 125.42 635.45 127.66 635.53 130.61 641.13 131.45 644.36 135.2 643.81 137.6 645.66 142.29 644.63 145.94 647.2 151.62 645.9 158.47 641.58 159.72 643.67 164.55 642.18 166.64 647.46 176.96 649.36 178.69 651.21 183.98 652.4 189.35 650.27 193.92 657.12 202.51 655.39 204.23 659.13 208.85 661.26 211.51 660.93 214.59 663.25 205.81 681.02 203.7 684.92 199.68 686.49 196.53 694.16 193.14 693.91 189.23 695.59 185.93 698.5 182.13 698.11 181.11 702.23 175.16 704.54 172.41 707.39 152.94 708 151.59 705.56 146.87 702.21 145.72 699.76 143.14 700.15 142.82 696.88 139.5 692.32 132.69 690.03 129.96 691.31 124.39 689.45 124.35 685.55 120.52 680.84 114.31 676.43 111.3 670.31 112.56 667.18 112.07 662.75 109.45 656.37 106.39 656.1 105.55 654.12 102.47 653.03 101.85 649.75 105.02 648.2 110.85 643.4 113.39 642.72 Z"
      id="McDowell" />
    <path
      d="M 345.88 250.97 349.85 249.94 351.06 244.93 354.06 242.69 386.11 250.31 387.86 250.01 401.5 258.93 400.66 263.09 400.48 282.57 406.23 290.16 396.79 304.74 396.24 316.84 392.74 319.29 384.46 318.59 360.2 311.2 357.62 309.68 349.47 309.53 344.97 308.38 344.5 306.79 339.84 304.91 336.94 305.02 342.57 302.65 346.33 299.29 347.62 295.77 341.93 293.99 342.46 288.55 338.58 285.6 340.18 281.28 335.93 280.42 339.06 275.57 341.37 273.63 345.65 266.94 346.56 260.44 345.3 256.22 346.71 254.87 345.88 250.97 Z"
      id="Harrison" />
    <path
      d="M 550.03 272.73 552.9 270.49 553.6 267.07 556.45 265.22 559.24 265.43 561.98 260.23 563.93 260.92 567.62 259.54 566.88 257.68 569.57 254.86 572.98 254.22 572.87 251.73 580.17 243.05 588.09 243.76 600.48 249.38 600.86 246.39 604.13 239.86 606.88 239.77 610.61 234.33 613.51 232.27 619.24 222.99 622 224.36 621.21 218.53 626.01 214.75 625.04 210.51 626.74 208.27 629.67 208.53 628.92 211.67 633.55 210.7 635.93 213.22 630.44 214.35 628.85 215.88 630.58 218.73 633.96 220.35 635.94 218.87 637.42 223.54 642.3 225.71 643.14 227.25 648.29 229.41 643.07 236.13 640.97 237.24 636.82 244.37 630.41 247.95 628.2 251.74 624 262.37 617.65 271.82 611.73 273.05 606.2 279.79 605.53 282.7 600.31 286.5 597.01 291.27 572.1 275.92 555.61 274.02 550.03 272.73 Z"
      id="Mineral" />
    <path
      d="M 35.48 569.41 37.34 567.94 53.81 551.77 72.95 545.91 71.8 548.32 74.34 551.02 77.08 556.65 76.98 558.94 79.92 561.35 82.52 561.43 84.19 565.48 82.49 566.24 84.73 571.57 79.4 574.42 81.38 576.88 81.32 580.16 85.79 582.2 86.68 585.15 85.68 589.6 83.86 592.29 87.84 594.45 89.44 603.2 92.03 602.15 95.8 603.07 98.59 607.35 98.66 610.07 102.18 611.34 107.91 611.04 111.47 609.79 113.93 607.62 116.58 608.03 117.77 611.7 123.12 610.14 126.41 611.23 129.03 610.07 132.82 613.64 134.73 612.62 135.8 618.64 134.36 622.6 131.69 623.38 130.13 627.82 125.5 632.79 125.42 635.45 123.19 637.63 116.58 639.73 113.39 642.72 110.81 640.79 106.6 635.45 100.39 637.93 96.89 637 91.02 637 89.68 633.21 85.26 633.54 84.51 631.99 79.79 633.38 79.38 631.08 81.39 628.55 80.19 625.01 76.17 625.01 72.27 617.78 67.04 618.03 65.13 612.2 62.83 610.38 60.06 611.29 57.65 609.76 53.84 605.02 50.77 597.6 50.5 595.22 47.98 593.03 50.21 590.28 48.13 588.52 47.2 584.15 41.45 580.66 37.93 576.49 35.48 569.41 Z"
      id="Mingo" />
    <path
      d="M 597.01 291.27 609.99 299.16 619.15 302.13 636.88 309.11 643.57 309.73 649.17 314.01 651.9 313.72 654.55 315.44 657.93 310.89 664.55 312.67 673.21 321.43 670.9 325.08 668.11 327.27 663.06 333.24 666.55 336.08 661.77 341.81 658.4 347.21 655.33 343.52 651.14 346.55 649.17 350.86 645.75 355.45 640.02 359.74 638.96 354.26 636.31 355.13 633.1 360.69 628.44 363.91 623.17 375.14 615.49 389.25 595.2 371.37 593.26 376.67 591.1 378.05 589.88 383.38 585.41 384.73 585.06 389.75 572.54 379.08 576.04 374.58 581.14 365.92 580.35 362.29 582.14 361.41 586.7 355.23 580.87 340.46 581.46 336 579.55 332.58 582.16 327.15 583.33 322.45 587.95 315.78 588.14 310.24 590.36 305.2 593.58 300.06 594.22 296.58 597.01 291.27 Z"
      id="Hardy" />
    <path
      d="M 231.09 490.07 269.22 468.31 283.77 459.76 299.24 446.82 298.01 443.53 291.63 442.25 288.96 440.77 304.69 430.56 311.45 436.97 312.48 435.83 322.1 435.87 326.45 437.26 321.92 441.98 327.81 458.45 324.38 460.81 328.55 468.45 330.11 472.9 332.72 472.03 360.69 491.24 348.85 501.82 318.68 527.15 315.26 529.6 309.1 528.04 287.52 524.17 288.13 522.13 284.47 520.19 280.3 514.27 276.69 510.66 277.7 505.37 271.37 499.3 267.42 499.48 265.47 501.27 260.96 498.98 260.37 501.03 254.85 502.83 250.64 500.93 246.96 496.26 242.81 498.07 239.59 496.49 237.01 497.13 235.46 493.22 231.06 490.11 231.09 490.07 Z"
      id="Nicholas" />
    <path
      d="M 253.47 243.68 256.89 237.66 261.84 231.79 269.44 224.41 282.45 213.34 291.6 218.99 297.08 214.58 298.38 218.35 301 219.95 300.56 222.09 306.96 225.18 307.7 228.2 314.64 233.27 315.66 237.68 318.49 241.03 325.53 240.69 334.05 246.43 329.24 247.89 327.58 249.94 322.43 251.15 318.56 250.6 315.53 257.52 299.93 268.11 290.25 278.08 291.06 275.31 291.46 264.85 288.85 261.61 282.74 258.89 280.78 266.45 278.5 268.54 271.32 266.07 270.32 253.7 268.84 243.06 264.19 240.13 263.81 242.71 260.28 241.79 257.61 243.87 253.47 243.68 Z"
      id="Tyler" />
    <path
      d="M 287.52 524.17 309.1 528.04 315.26 529.6 318.68 527.15 348.85 501.82 360.69 491.24 373.08 499.94 372.33 522.99 388.32 537.13 399.22 537.97 403.92 539.42 414.14 535.42 438.19 533.94 431.13 548.56 423.58 555.81 419.28 558.94 415.64 563.9 414.6 563.72 408.15 571.18 404.82 572.71 400.79 580.4 395.46 586.14 393.47 592.63 388.09 600.85 389.84 602.62 384.02 609.48 382.52 610.42 378.61 611.48 374.01 609.9 371.75 610.77 367.87 610.08 367.9 607.03 365.63 605.62 357.39 611.28 355.05 609.85 347.92 610.21 323.67 602.44 322.28 601.52 321.56 595.04 312.13 584.76 308.11 579.79 299.21 572.83 308.63 573.76 298.7 556.24 305.41 549 302.88 547.9 302.94 544.5 300.64 540.19 296.11 539.14 295.92 536.72 298.74 536 297.65 532.29 294.22 534.75 289.99 533.54 287.01 528.5 287.52 524.17 Z"
      id="Greenbrier" />
    <path
      d="M 115.48 536.67 115.38 534.87 109.31 531.84 110.68 523.24 113.78 519.36 112.56 517.38 116.19 510.9 123.06 512.69 123.72 507.66 126.21 505.63 129.46 506.19 131.38 499.74 132.67 499.04 134.06 501.04 140.52 498.27 140.86 494.9 143.99 495.63 145.51 500.32 148.34 501.79 150.43 500.31 150.83 496.79 155.18 495.94 156.6 497.87 161.07 496.87 163.65 497.5 162.71 504.86 164.95 506.46 168.71 506.74 170.63 509.85 175.39 515.03 179.15 514.87 181.1 518.45 183.7 520.86 180.98 523.52 181.7 527.95 185.51 531.09 187.46 529.74 189.95 531.3 192.78 538.21 191.65 541.99 193.14 546.43 184.79 546.06 181.67 549.49 179.52 549.54 176.75 552.89 176.85 554.59 174.06 558.31 176.79 565.29 174.4 570.78 175.39 576.2 177.61 579.02 182 580.55 181.71 584.88 182.8 586.75 180.05 587.12 174.66 591.44 167.48 586.91 166.45 585.11 161.22 580.71 158.92 577.72 153.81 579.68 149.91 582.13 145.17 578.02 145.05 574.92 142.41 573.84 140.63 569.04 143.2 563.95 139.03 555.68 134.22 553.32 126.75 552.9 120.14 550.06 118.5 547.06 114.43 546.58 112.21 547.63 107.84 545.28 107.59 543.45 115.48 536.67 Z"
      id="Boone" />
    <path
      d="M 212.94 266.81 216.76 266.12 224.91 260.37 229.26 258.07 233.91 257.26 236.82 258.19 243.03 249.07 245.52 247.37 250.75 246.52 253.47 243.68 257.61 243.87 260.28 241.79 263.81 242.71 264.19 240.13 268.84 243.06 270.32 253.7 271.32 266.07 267.61 266.1 265.36 270.55 262.53 271.61 259.55 269.95 253.38 273.1 247.22 273.8 244.65 274.83 236.87 274.33 233.8 282.47 230.53 279.66 229.45 276.72 220.47 275.36 220.1 271.44 214.07 271.29 212.94 266.81 Z"
      id="Pleasants" />
    <path
      d="M 189.9 353.98 190.78 352.79 195.64 352.13 198.8 349.27 204.05 353.71 215.44 359.14 221.15 356.67 226.1 355.37 228.59 356.22 228.99 359.92 231.57 362.06 231.02 368.23 235.12 370.28 235 377.02 233.91 380.89 238.86 386.09 242.64 391.88 242.13 402.66 243.25 408.23 245.9 412.23 250 414.51 252.67 412.85 256.6 417.12 256.44 418.55 248.6 427.95 238.2 435.65 233.93 434.7 225.17 436.6 220.47 433.82 213.05 432.33 194.22 430.17 193.21 430.87 187.56 423.22 185.32 416.96 181.64 404.55 183.04 399.21 184.82 388.93 186.41 373.13 185.5 359.26 189.9 353.98 Z"
      id="Roane" />
    <path
      d="M 648.29 229.41 653.79 228.44 658.75 229.98 662.97 232.5 670.1 231.32 673.02 232.55 678.56 232.88 683.56 236.27 692.06 240.68 698.16 243.13 698.32 251.07 696.34 254.21 698.99 259.08 695.27 265.23 699.52 266.37 696.48 273.79 692.17 278.88 687.09 286.37 690.28 289.09 689.38 291.78 684.14 298.69 689.84 304.94 686.08 308.03 684.18 312.31 680.93 316.23 677.95 316.99 673.21 321.43 664.55 312.67 657.93 310.89 654.55 315.44 651.9 313.72 649.17 314.01 643.57 309.73 636.88 309.11 619.15 302.13 609.99 299.16 597.01 291.27 600.31 286.5 605.53 282.7 606.2 279.79 611.73 273.05 617.65 271.82 624 262.37 628.2 251.74 630.41 247.95 636.82 244.37 640.97 237.24 643.07 236.13 648.29 229.41 Z"
      id="Hampshire" />
    <path
      d="M 282.45 213.34 286.67 210.97 292.64 210.65 294.93 204.09 295.84 195.63 300.32 193.66 300.44 190.08 350.6 190.61 366.24 190.83 368.57 192.49 368.53 195.16 370.33 199.28 369.07 202.09 371.14 206.79 370.15 208.19 365.03 207.44 362.53 209.73 364.04 211.66 361.5 213.61 361.57 216.21 356.99 216.25 356.52 219.1 353.62 223.32 356.28 233.42 358.37 235.72 357.67 239.27 354.33 240.51 354.06 242.69 351.06 244.93 349.85 249.94 345.88 250.97 340.06 246.47 334.05 246.43 325.53 240.69 318.49 241.03 315.66 237.68 314.64 233.27 307.7 228.2 306.96 225.18 300.56 222.09 301 219.95 298.38 218.35 297.08 214.58 291.6 218.99 282.45 213.34 Z"
      id="Wetzel" />
    <path
      d="M 418.91 351.22 449.44 345.98 450.89 339.83 453.26 333.39 454.84 325.48 457.05 320.9 459.21 320.64 461.01 316.6 465.15 318.22 469.01 324.72 468.72 330.94 467.31 332.82 511.96 345.75 517.15 345.19 526.14 346.47 528.12 346.02 536.36 347.94 537.62 349.38 534.71 356.15 527 356.53 522.53 354.55 520.57 355.11 522.08 361.43 516.2 364.1 511.48 362.53 510.25 364.14 511.33 368.07 507.06 373.4 509.63 375.71 508.98 379.03 512.11 381.77 511.75 385.94 507.59 392.99 504.38 395.9 503.51 399.05 497.55 405.17 497.69 410.29 492.83 410 492.78 406.96 487.79 404.81 484.43 406.33 484.15 409.95 481.32 409.59 479.31 405.53 474.64 406.8 475.2 400.07 468.6 394.32 464.4 400.41 465.06 401.77 459.88 415.35 457.18 417 457.86 421.4 455.52 426.56 454.34 433.37 427.46 452.14 413.09 448.99 392.04 466.5 402.28 438.29 386.97 403.13 394.11 393.09 411.99 392.8 416.61 373.25 414.91 361.51 417.58 358.82 418.91 351.22 Z"
      id="Randolph" />
    <path
      d="M 226.1 355.37 227.11 350.96 245.27 331.82 246.55 329.8 250.62 328.9 254.9 333.88 259.29 336.33 265.97 336.53 266.21 341.79 269.17 343.87 270.66 346.66 270.71 352.57 268.9 354.5 269.78 359.18 270.38 370.41 268.86 371.49 268.8 375.32 262.19 381.68 263.11 385.86 267.34 387.9 270.91 390.81 272.83 396.94 265.08 407.15 256.44 418.55 256.6 417.12 252.67 412.85 250 414.51 245.9 412.23 243.25 408.23 242.13 402.66 242.64 391.88 238.86 386.09 233.91 380.89 235 377.02 235.12 370.28 231.02 368.23 231.57 362.06 228.99 359.92 228.59 356.22 226.1 355.37 Z"
      id="Calhoun" />
    <path
      d="M 205.46 550.46 214.46 509.4 217.13 506.99 231.06 490.11 235.46 493.22 237.01 497.13 239.59 496.49 242.81 498.07 246.96 496.26 250.64 500.93 254.85 502.83 260.37 501.03 260.96 498.98 265.47 501.27 267.42 499.48 271.37 499.3 277.7 505.37 276.69 510.66 280.3 514.27 284.47 520.19 288.13 522.13 287.52 524.17 287.01 528.5 289.99 533.54 294.22 534.75 297.65 532.29 298.74 536 295.92 536.72 296.11 539.14 300.64 540.19 302.94 544.5 302.88 547.9 305.41 549 298.7 556.24 308.63 573.76 299.21 572.83 276.29 582.78 270.95 579.8 262.74 580.4 258.35 579.42 257.29 575.03 255.51 573.82 255.47 570.7 232.97 568.67 219.15 567.22 219.36 563.78 218.29 558.1 218.97 555.7 215.1 554.21 214.03 551.13 210.98 549 205.46 550.46 Z"
      id="Fayette" />
    <path
      d="M 72.95 545.91 97.09 538.35 115.48 536.67 107.59 543.45 107.84 545.28 112.21 547.63 114.43 546.58 118.5 547.06 120.14 550.06 126.75 552.9 134.22 553.32 139.03 555.68 143.2 563.95 140.63 569.04 142.41 573.84 145.05 574.92 145.17 578.02 149.91 582.13 153.81 579.68 158.92 577.72 161.22 580.71 166.45 585.11 167.48 586.91 162.42 589.09 159.3 588.56 152.57 590.84 145.07 591.39 141.89 594.27 151.58 604.58 146.36 606.15 144.04 608.9 136.57 610.45 134.73 612.62 132.82 613.64 129.03 610.07 126.41 611.23 123.12 610.14 117.77 611.7 116.58 608.03 113.93 607.62 111.47 609.79 107.91 611.04 102.18 611.34 98.66 610.07 98.59 607.35 95.8 603.07 92.03 602.15 89.44 603.2 87.84 594.45 83.86 592.29 85.68 589.6 86.68 585.15 85.79 582.2 81.32 580.16 81.38 576.88 79.4 574.42 84.73 571.57 82.49 566.24 84.19 565.48 82.52 561.43 79.92 561.35 76.98 558.94 77.08 556.65 74.34 551.02 71.8 548.32 72.95 545.91 Z"
      id="Logan" />
    <path
      d="M 515.49 298.06 518.24 298.52 525.54 293.46 530.6 286.5 532.86 284.44 536.88 283.14 538.39 279.94 543.14 277.69 547.08 278.73 548.39 273.82 550.03 272.73 555.61 274.02 572.1 275.92 597.01 291.27 594.22 296.58 593.58 300.06 590.36 305.2 588.14 310.24 587.95 315.78 583.33 322.45 582.16 327.15 579.55 332.58 581.46 336 580.87 340.46 586.7 355.23 582.14 361.41 580.35 362.29 581.14 365.92 576.04 374.58 572.54 379.08 559.27 367.69 542.11 353.45 537.62 349.38 536.36 347.94 538.95 347.05 543.98 334.33 545.91 325.46 543.25 326.07 537.84 321.23 538.09 318.33 540.55 316.04 540.47 310.05 543.47 304.03 545.78 302.21 546.1 299.58 543.92 296.94 538.3 296.42 535.09 299.4 532.3 298.51 530.62 300.75 527.16 301.62 523.94 301.04 518.61 303.67 515.44 300.34 515.49 298.06 Z"
      id="Grant" />
    <path
      d="M 134.73 612.62 136.57 610.45 144.04 608.9 146.36 606.15 151.58 604.58 141.89 594.27 145.07 591.39 152.57 590.84 159.3 588.56 162.42 589.09 167.48 586.91 174.66 591.44 180.05 587.12 182.8 586.75 186.3 586.76 188.92 589.03 191.04 588.01 195.17 594.9 196.81 595.73 213.61 627.47 215.37 631.81 214.3 634.68 216.26 638.04 223.03 642.16 224.68 641.03 229.62 645.78 223.58 648.06 220.17 653.5 217.44 654.08 215.64 658.01 218.48 661.44 219.29 664.31 217.56 665.65 214.59 663.25 211.51 660.93 208.85 661.26 204.23 659.13 202.51 655.39 193.92 657.12 189.35 650.27 183.98 652.4 178.69 651.21 176.96 649.36 166.64 647.46 164.55 642.18 159.72 643.67 158.47 641.58 151.62 645.9 145.94 647.2 142.29 644.63 137.6 645.66 135.2 643.81 131.45 644.36 130.61 641.13 127.66 635.53 125.42 635.45 125.5 632.79 130.13 627.82 131.69 623.38 134.36 622.6 135.8 618.64 134.73 612.62 Z"
      id="Wyoming" />
    <path
      d="M 157.14 413.47 167.09 428.61 176.06 424.13 185.32 416.96 187.56 423.22 193.21 430.87 194.22 430.17 213.05 432.33 220.47 433.82 225.17 436.6 233.93 434.7 238.2 435.65 223.4 446.86 227.79 466.98 231.09 490.07 231.06 490.11 217.13 506.99 214.46 509.4 205.46 550.46 200 549.43 196.41 550.47 193.14 546.43 191.65 541.99 192.78 538.21 189.95 531.3 187.46 529.74 185.51 531.09 181.7 527.95 180.98 523.52 183.7 520.86 181.1 518.45 179.15 514.87 175.39 515.03 170.63 509.85 168.71 506.74 164.95 506.46 162.71 504.86 163.65 497.5 161.07 496.87 156.6 497.87 155.18 495.94 150.83 496.79 150.43 500.31 148.34 501.79 145.51 500.32 143.99 495.63 140.86 494.9 140.52 498.27 134.06 501.04 132.67 499.04 136.58 495.35 137.85 490.98 137.51 481.77 135.72 476.96 133.73 475.71 131.08 477.54 124.71 477.08 119.98 474.71 122.82 459.7 133.42 453.74 143.1 450.21 152 446.15 150.3 439.42 147.49 434.49 148.52 428.32 148.17 420.57 151.73 419.59 157.14 413.47 Z"
      id="Kanawha" />
    <path
      d="M 193.14 546.43 196.41 550.47 200 549.43 205.46 550.46 210.98 549 214.03 551.13 215.1 554.21 218.97 555.7 218.29 558.1 219.36 563.78 219.15 567.22 232.97 568.67 255.47 570.7 255.51 573.82 257.29 575.03 258.35 579.42 262.74 580.4 270.95 579.8 276.29 582.78 279.34 584.77 280.09 588.15 283.41 590.76 284.45 593.73 280.52 596.73 279.61 598.73 283.61 601.46 284.96 607.23 282.32 607.79 275.63 604.2 270.75 604.24 268.64 610.21 263.2 613.47 262.2 615.74 255.46 619.27 254.65 620.91 255.99 625.45 250.91 629.99 246.83 629.97 244.24 627.96 233.71 632.39 233.38 639.68 229.62 645.78 224.68 641.03 223.03 642.16 216.26 638.04 214.3 634.68 215.37 631.81 213.61 627.47 196.81 595.73 195.17 594.9 191.04 588.01 188.92 589.03 186.3 586.76 182.8 586.75 181.71 584.88 182 580.55 177.61 579.02 175.39 576.2 174.4 570.78 176.79 565.29 174.06 558.31 176.85 554.59 176.75 552.89 179.52 549.54 181.67 549.49 184.79 546.06 193.14 546.43 Z"
      id="Raleigh" />
    <path
      d="M 373.08 499.94 374.6 475.26 378.15 477.27 392.04 466.5 413.09 448.99 427.46 452.14 454.34 433.37 455.52 426.56 457.86 421.4 457.18 417 459.88 415.35 465.06 401.77 464.4 400.41 468.6 394.32 475.2 400.07 474.64 406.8 479.31 405.53 481.32 409.59 484.15 409.95 484.43 406.33 487.79 404.81 492.78 406.96 492.83 410 494.05 411.44 491.59 415.77 494.03 418.58 492.76 421.64 489.19 425.02 486.94 429.38 485.28 437.99 487.05 440.72 484.07 441.73 481.77 445.11 481.03 449.05 482.77 454.16 482.53 458.09 479.76 461.33 475.66 470.07 476.65 472.05 473.63 474.08 470.32 473.55 468.9 477.88 465.07 480.36 462.85 484.16 466.5 490.73 461.03 495.89 456.87 497.58 448.35 507.25 444.62 509.85 445.39 513.44 443.3 518.24 440.71 519.92 441.66 524.05 443.71 524.98 439.1 530.49 438.19 533.94 414.14 535.42 403.92 539.42 399.22 537.97 388.32 537.13 372.33 522.99 373.08 499.94 Z"
      id="Pocahontas" />
    <path
      d="M 749.68 210.63 747.59 211.39 743.8 215.12 740.54 214.89 738.22 218.55 734.79 216.18 731.12 216.26 725.98 230.66 723.41 239.87 721.77 247.86 717.34 258.33 711.82 253.63 698.16 243.13 692.06 240.68 683.56 236.27 678.56 232.88 681.43 228.47 686.7 226 680.71 220.96 682.46 217.46 688.11 219.99 689.77 217.56 686.03 214.93 683.92 211.84 686 210.63 692.81 213.82 692.01 210.92 695.28 210.09 696.93 207.09 710.59 211.38 712.57 206.96 717.33 202.24 716.74 199.45 720.63 199.29 723.8 195.43 725.62 195.3 735.81 197.93 740.7 200.59 747.45 207.34 749.68 210.63 Z"
      id="Morgan" />
    <path
      d="M 315.46 319.5 319.69 320.64 323.1 316.22 323.09 314.26 327.09 310.26 330.24 311.03 336.94 305.02 339.84 304.91 344.5 306.79 344.97 308.38 349.47 309.53 357.62 309.68 360.2 311.2 384.46 318.59 383.6 327.34 381.42 337.25 378.73 340.7 381.1 348.1 377.21 352.61 376.34 357.45 374.06 359.22 373.14 363.38 370.01 365.79 366.14 387.76 368.72 396.2 363.29 395.44 360.27 396.27 358.34 393.7 359.36 391.65 358.58 386.28 353.91 381.02 355.88 374.23 347.84 368.03 344.62 369.86 342.36 366.98 337.69 368.08 337.06 363.59 334.72 359.33 317.07 337.55 315.34 322.01 315.46 319.5 Z"
      id="Lewis" />
    <path
      d="M 24.1 454.21 48.61 475.81 52.08 475.68 52.73 473.21 57.68 472.52 59.26 475.57 56.21 479.14 55.01 487.18 58.31 491.94 62.43 492.99 62.06 496.82 60.16 497.78 60.94 505.3 58.49 510.28 63.11 513.19 61.33 516.63 64.65 519.33 65.72 523.7 67.49 525.94 71.14 527.01 73.12 531.13 70.94 535.55 64.51 540.25 53.81 551.77 37.34 567.94 35.48 569.41 34.28 567.63 34.4 562.93 29.68 558.22 23.9 555.78 21.69 552.92 26.88 547.71 28.04 542.45 25.02 542.48 24.26 539.37 20.14 539.18 18.47 533.51 16.45 531.17 14.62 524.19 9.41 519.91 9.25 516.52 3.64 511.16 1.05 509.61 1 502.98 5.52 503.05 7.67 497.81 7.96 493.65 5.78 490.03 6.74 487.7 10.18 487.89 12.16 484.18 11.31 476.59 12.96 473.98 12.32 470.9 8.94 467.31 9.93 460.03 9.74 452.29 13.66 455.02 17.19 455.54 24.1 454.21 Z"
      id="Wayne" />
    <path
      d="M 272.83 396.94 294.8 381.92 319.18 364.32 324.32 361.57 329.11 362.22 332.43 359.63 334.72 359.33 337.06 363.59 337.69 368.08 342.36 366.98 344.62 369.86 347.84 368.03 355.88 374.23 353.91 381.02 358.58 386.28 359.36 391.65 358.34 393.7 349.81 412.96 326.45 437.26 322.1 435.87 312.48 435.83 311.45 436.97 304.69 430.56 288.96 440.77 287.08 434.4 284.54 433.25 283.97 429.09 276.84 421.93 273.63 415.86 265.08 407.15 272.83 396.94 Z"
      id="Braxton" />
    <path
      d="M 406.23 290.16 408.85 291.01 429.31 289.12 439.28 284.85 443.16 279.01 444.92 280.79 448.4 277.81 449.83 278.57 453.27 279.52 456.74 284.77 457.06 289.57 462.1 290.83 463.57 292.9 462.47 295.28 459.88 308.29 459.15 314.17 461.01 316.6 459.21 320.64 457.05 320.9 454.84 325.48 453.26 333.39 450.89 339.83 449.44 345.98 418.91 351.22 422.34 348.98 424.18 345.48 423.19 335.79 421.92 332.47 412.07 332.46 408.32 325.44 405.76 322.12 400.65 319.82 399.06 320.05 396.24 316.84 396.79 304.74 406.23 290.16 Z"
      id="Barbour" />
    <path
      d="M 224.05 299.38 220.95 303.04 219.68 308.18 226.86 312.74 227.32 315.54 229.67 316.54 231.13 330.63 238.02 328.78 242.7 329.68 245.27 331.82 227.11 350.96 226.1 355.37 221.15 356.67 215.44 359.14 204.05 353.71 198.8 349.27 195.64 352.13 190.78 352.79 189.9 353.98 183.74 347.05 182.58 343.58 185.8 341.63 184.67 338.96 185.53 335.71 177.69 331.33 182.3 326.66 203.42 309.26 208.64 308.18 224.05 299.38 Z"
      id="Wirt" />
    <path
      d="M 124.11 360.52 127.22 361.47 132.21 358.31 133.93 356.04 134.75 350.41 136.92 347.38 139.73 346.94 144.24 351.18 148.38 351.36 149.04 349.78 145.06 343.19 148.15 332.87 146.82 330.58 142.02 326.01 140.75 323.52 141.49 318.49 146.66 319.78 151.31 316.39 177.69 331.33 185.53 335.71 184.67 338.96 185.8 341.63 182.58 343.58 183.74 347.05 189.9 353.98 185.5 359.26 186.41 373.13 184.82 388.93 183.04 399.21 181.64 404.55 185.32 416.96 176.06 424.13 167.09 428.61 157.14 413.47 149.11 401.35 145.02 401.92 138.61 394.75 142.31 391.05 124.96 363.68 124.11 360.52 Z"
      id="Jackson" />
    <path
      d="M 366.24 190.83 457.02 191.57 471.26 191.6 471.24 196.55 467.77 204.71 467.12 211.64 449.32 240.88 450.09 250.47 443.02 246.94 438.37 244.75 433.81 239.72 431.54 239.72 430.8 236.74 427.01 235.52 426.38 232.29 417.94 224.03 413.17 220.52 408.85 214.09 377.8 213.54 374.64 209.02 370.15 208.19 371.14 206.79 369.07 202.09 370.33 199.28 368.53 195.16 368.57 192.49 366.24 190.83 Z"
      id="Monongalia" />
    <path
      d="M 289.28 663.78 300.15 643.39 307.94 631.11 318.54 612.75 322.71 605.06 322.28 601.52 323.67 602.44 347.92 610.21 355.05 609.85 357.39 611.28 365.63 605.62 367.9 607.03 367.87 610.08 371.75 610.77 374.01 609.9 378.61 611.48 382.52 610.42 385.22 617.62 387.16 619.91 394.77 623.76 391.56 628.04 388.47 630.38 376.96 636.73 379.58 640.49 376.61 642.53 380.05 644.39 384.5 643.16 381.59 648.35 371.09 654.1 360.72 660.23 352.42 665.71 349.27 663.17 349.64 658.48 346.66 653.5 339.94 655.1 331.93 660.67 314.47 671.1 303.7 675.56 301.43 670.93 297.8 668.91 292.9 664.65 289.28 663.78 Z"
      id="Monroe" />
    <path
      d="M 384.46 318.59 392.74 319.29 396.24 316.84 399.06 320.05 400.65 319.82 405.76 322.12 408.32 325.44 412.07 332.46 421.92 332.47 423.19 335.79 424.18 345.48 422.34 348.98 418.91 351.22 417.58 358.82 414.91 361.51 416.61 373.25 411.99 392.8 394.11 393.09 386.97 403.13 382.9 405.21 378.72 401.79 378.31 397.82 375.15 395.62 368.72 396.2 366.14 387.76 370.01 365.79 373.14 363.38 374.06 359.22 376.34 357.45 377.21 352.61 381.1 348.1 378.73 340.7 381.42 337.25 383.6 327.34 384.46 318.59 Z"
      id="Upshur" />
    <path
      d="M 276.29 582.78 299.21 572.83 308.11 579.79 312.13 584.76 321.56 595.04 322.28 601.52 322.71 605.06 318.54 612.75 307.94 631.11 300.15 643.39 289.28 663.78 289.1 663.52 250.91 629.99 255.99 625.45 254.65 620.91 255.46 619.27 262.2 615.74 263.2 613.47 268.64 610.21 270.75 604.24 275.63 604.2 282.32 607.79 284.96 607.23 283.61 601.46 279.61 598.73 280.52 596.73 284.45 593.73 283.41 590.76 280.09 588.15 279.34 584.77 276.29 582.78 Z"
      id="Summers" />
    <path
      d="M 401.5 258.93 413.47 257.36 414.99 255.77 417.68 257.48 419.22 260.45 429.15 257.41 431.38 254.14 443.02 246.94 450.09 250.47 449.83 278.57 448.4 277.81 444.92 280.79 443.16 279.01 439.28 284.85 429.31 289.12 408.85 291.01 406.23 290.16 400.48 282.57 400.66 263.09 401.5 258.93 Z"
      id="Taylor" />
    <path
      d="M 325.92 94.37 328.13 91.48 329.25 85.27 332 80.86 335.53 78.74 336.81 72.51 339.25 67.23 337.28 61 338.16 56.49 334.73 51.19 343.59 50.31 352.41 50.44 352.11 62.33 351.67 100.04 339.68 96.33 329.15 95.88 325.92 94.37 Z"
      id="Brooke" />
    <path
      d="M 352.41 50.44 343.59 50.31 334.73 51.19 337.59 49.39 337.77 42.38 339.86 38.15 339.78 33.15 336.86 29.08 335.44 22.09 329.33 14.18 330.06 10.48 335.72 4.7 340.21 3.65 343.65 5.97 346.2 4.05 352.81 1 352.42 35.14 352.41 50.44 Z"
      id="Hancock" />
    <path
      d="M 145.02 401.92 149.11 401.35 157.14 413.47 151.73 419.59 148.17 420.57 148.52 428.32 147.49 434.49 150.3 439.42 152 446.15 143.1 450.21 133.42 453.74 122.82 459.7 119.98 474.71 107.19 486.05 103.18 485.34 98.01 481.4 99.22 471.73 98.78 464.03 98.07 443.31 97.32 415.7 115.24 406 145.02 401.92 Z"
      id="Putnam" />
    <path
      d="M 214.59 663.25 217.56 665.65 219.29 664.31 218.48 661.44 215.64 658.01 217.44 654.08 220.17 653.5 223.58 648.06 229.62 645.78 233.38 639.68 233.71 632.39 244.24 627.96 246.83 629.97 250.91 629.99 289.1 663.52 288.52 667.17 285.05 672.89 290.51 680.63 287.26 682.3 281.98 687.09 274.09 690.92 268.75 691.48 268.87 689.52 259.31 691.84 246.81 694.05 237.75 697.12 228.04 702.73 212.6 689.09 205.81 681.02 214.59 663.25 Z"
      id="Mercer" />
    <path
      d="M 325.92 94.37 329.15 95.88 339.68 96.33 351.67 100.04 351.33 129.65 317.33 125.72 317.75 122.45 316.6 116.96 321.18 112.08 321.31 104.08 322.22 100.67 325.92 94.37 Z"
      id="Ohio" />
    <path
      d="M 326.45 437.26 349.81 412.96 358.34 393.7 360.27 396.27 363.29 395.44 368.72 396.2 375.15 395.62 378.31 397.82 378.72 401.79 382.9 405.21 386.97 403.13 402.28 438.29 392.04 466.5 378.15 477.27 374.6 475.26 373.08 499.94 360.69 491.24 332.72 472.03 330.11 472.9 328.55 468.45 324.38 460.81 327.81 458.45 321.92 441.98 326.45 437.26 Z"
      id="Webster" />
    <path
      d="M 471.26 191.6 517.11 191.6 516.76 230.74 516.16 232.88 515.89 269.47 515.36 282.77 515.49 298.06 515.44 300.34 512.15 295.94 483.28 284.5 463.57 292.9 462.1 290.83 457.06 289.57 456.74 284.77 453.27 279.52 449.83 278.57 450.09 250.47 449.32 240.88 467.12 211.64 467.77 204.71 471.24 196.55 471.26 191.6 Z"
      id="Preston" />
    <path
      d="M 317.33 125.72 351.33 129.65 350.6 190.61 300.44 190.08 295.45 183.3 295.89 178.77 301.86 174.02 302.52 171.32 301.85 165.12 303.56 162.8 307.31 160.63 307.23 156.7 304.9 152.44 305.84 149.24 311.4 151.21 313.39 149.81 312.11 143.58 313.1 140.98 316.06 138.63 315.85 131.43 317.33 125.72 Z"
      id="Marshall" />
    <path
      d="M 238.2 435.65 248.6 427.95 256.44 418.55 265.08 407.15 273.63 415.86 276.84 421.93 283.97 429.09 284.54 433.25 287.08 434.4 288.96 440.77 291.63 442.25 298.01 443.53 299.24 446.82 283.77 459.76 269.22 468.31 231.09 490.07 227.79 466.98 223.4 446.86 238.2 435.65 Z"
      id="Clay" />
    <path
      d="M 749.68 210.63 751.5 213.81 757.06 214.61 759.36 212.72 761.04 216 763.12 217.12 765.58 213.41 771.17 214.86 771.64 211.05 779.21 212.9 780.59 215.99 780.11 220.14 778.71 221.55 772.9 221.83 771.67 224.24 775.27 227.72 775.05 231.26 781.64 235.98 778.3 245.56 776.51 247.84 765.17 259.65 763.19 259.74 760.85 262.63 756.73 269.71 756.15 272.5 751.47 278 749.15 284.01 728.81 268.05 717.34 258.33 721.77 247.86 723.41 239.87 725.98 230.66 731.12 216.26 734.79 216.18 738.22 218.55 740.54 214.89 743.8 215.12 747.59 211.39 749.68 210.63 Z"
      id="Berkeley" />
    <path
      d="M 463.57 292.9 483.28 284.5 512.15 295.94 515.44 300.34 518.61 303.67 523.94 301.04 527.16 301.62 530.62 300.75 532.3 298.51 535.09 299.4 538.3 296.42 543.92 296.94 546.1 299.58 545.78 302.21 543.47 304.03 540.47 310.05 540.55 316.04 538.09 318.33 537.84 321.23 543.25 326.07 545.91 325.46 543.98 334.33 538.95 347.05 536.36 347.94 528.12 346.02 526.14 346.47 517.15 345.19 511.96 345.75 467.31 332.82 468.72 330.94 469.01 324.72 465.15 318.22 461.01 316.6 459.15 314.17 459.88 308.29 462.47 295.28 463.57 292.9 Z"
      id="Tucker" />
    <path
      d="M 124.11 360.52 124.96 363.68 142.31 391.05 138.61 394.75 145.02 401.92 115.24 406 97.32 415.7 98.07 443.31 72.18 418.33 77.1 417.8 79.02 416.04 80 411.48 77.29 400.15 78.82 394.32 76.47 384.13 73.67 381.85 73.73 376.2 78.07 372.31 82.92 370.49 85.71 367.3 86.78 362.25 86.34 355.41 91.63 348.43 92.13 345.76 95.54 339.57 101.7 335.94 104.1 329.91 106.69 328.82 110.99 330.39 113.64 336.63 117.86 336.05 120.76 337.86 125.74 348.33 125.77 350.86 121.33 355.73 121.22 357.73 124.11 360.52 Z"
      id="Mason" />
    <path
      d="M 370.15 208.19 374.64 209.02 377.8 213.54 408.85 214.09 413.17 220.52 417.94 224.03 426.38 232.29 427.01 235.52 430.8 236.74 431.54 239.72 433.81 239.72 438.37 244.75 443.02 246.94 431.38 254.14 429.15 257.41 419.22 260.45 417.68 257.48 414.99 255.77 413.47 257.36 401.5 258.93 387.86 250.01 386.11 250.31 354.06 242.69 354.33 240.51 357.67 239.27 358.37 235.72 356.28 233.42 353.62 223.32 356.52 219.1 356.99 216.25 361.57 216.21 361.5 213.61 364.04 211.66 362.53 209.73 365.03 207.44 370.15 208.19 Z"
      id="Marion" />
    <path
      d="M 781.64 235.98 786.45 236.85 788.14 245.59 787.14 249.04 793.53 250.43 796.36 257.72 793.68 259.72 794.96 264.88 792.84 266.55 793.45 268.9 799 271.98 796.9 273.28 794.98 276.91 791.33 289.02 787.86 294.59 786.16 302.05 782.61 310.77 749.15 284.01 751.47 278 756.15 272.5 756.73 269.71 760.85 262.63 763.19 259.74 765.17 259.65 776.51 247.84 778.3 245.56 781.64 235.98 Z"
      id="Jefferson" />
  </g>
</svg>